<svg width="427" height="215" viewBox="0 0 427 215" fill="none" xmlns="http://www.w3.org/2000/svg">
<path fill-rule="evenodd" clip-rule="evenodd" d="M378.909 62.1842C377.695 66.0703 375.648 69.9766 377.876 73.2151C379.74 75.9328 391.404 85.5515 375.977 83.1403C361.594 80.8936 339.577 84.1043 331.633 93.9652C328.532 97.8163 317.567 96.2968 314.336 93.4144C307.841 87.6202 307.358 86.9057 312.691 81.3223C316.996 76.8195 309.842 71.1629 311.724 65.1364C313.396 59.7799 344.85 70.8209 351.582 68.6739C355.632 67.3818 355.698 67.9853 359.022 66.0703C362.928 63.8184 362.023 62.6949 367.262 60.9026C369.863 60.0119 379.126 59.3415 378.909 62.1842ZM387.184 62.912C384.828 69.1212 384.539 83.642 394.905 80.292C400.532 78.4749 401.652 77.012 407.945 77.1006C411.179 77.143 414.252 76.7647 417.351 76.8066C421.837 76.8692 426.174 69.7782 426.588 66.4013C427.104 62.1471 423.314 62.1587 419.77 60.8304C415.641 59.2776 415.63 61.8393 412.496 62.8374C407.109 64.5545 389.809 57.321 387.184 62.912ZM11.7643 170.559C2.02182 173.979 13.9777 177.841 15.2993 180.834C16.3774 183.275 24.2361 186.044 27.8125 186.867C28.9632 187.132 31.5318 188.313 32.0105 186.931C33.29 183.231 31.908 182.69 29.6894 180.54C26.881 177.818 25.6958 174.095 26.851 169.073C27.2944 167.143 28.4195 164.478 26.3335 163.997C18.6762 162.236 21.3965 167.178 11.7643 170.559ZM41.7943 184.677C41.2123 184.609 36.0765 184.184 35.8998 184.672C35.0698 186.959 34.8747 188.74 36.8175 189.839C40.4227 191.88 45.3951 194.516 49.8293 195.536C53.6628 196.419 53.4293 196.818 55.5218 194.593C56.5326 193.518 55.9473 189.082 56.2967 187.562C56.7967 185.386 59.264 180.125 58.3643 178.576C55.8784 174.294 45.6503 185.127 41.7943 184.677ZM35.8429 168.438C33.0037 170.351 32.1039 168.215 30.9629 173.173C30.2737 176.169 33.2482 175.951 35.6716 176.509C45.8343 178.847 52.5448 178.239 55.1266 167.016C55.7166 164.443 55.8519 164.029 53.415 163.468L44.2115 161.352C32.9315 158.757 42.2009 164.154 35.8429 168.438ZM23.1429 137.581C21.6248 144.181 23.5315 154.432 27.2129 158.342C30.8573 162.212 36.4829 155.282 37.9966 155.416C39.9807 155.591 40.4053 154.168 42.3908 154.625C48.5749 156.048 47.7738 155.031 49.1671 148.974C49.8588 145.957 48.4492 143.352 47.5409 141.391C44.0646 133.883 23.1767 137.435 23.1429 137.581ZM45.5329 109.839C45.8652 111.259 43.7874 117.429 43.3672 119.253C42.676 122.253 48.2134 132.606 43.4172 133.683C41.0046 134.225 35.8804 132.4 32.9172 131.718C22.71 129.37 30.1783 122.813 26.3672 116.243C25.2584 114.332 24.3101 110.537 24.8406 108.232C26.3455 101.682 44.7125 106.354 45.5329 109.839ZM10.7629 95.6334C2.62612 95.0263 -1.55098 105.108 0.530117 112.654C3.03952 121.753 4.03372 122.982 3.30162 133.568C2.74852 141.559 -3.31018 155.96 5.39012 159.281C31.4356 169.224 17.6056 150.127 20.9968 135.386C25.1074 117.508 24.3052 106.573 10.7629 95.6334ZM37.8358 68.4407C30.7531 66.8107 10.591 84.1165 16.931 91.5674C23.4191 99.193 41.637 101.386 48.321 94.2829C51.1525 91.2723 43.4977 82.8872 42.0402 81.3399C36.7329 75.7078 47.4854 72.728 37.8358 68.4407ZM62.1874 185.763C59.9236 195.604 67.0724 190.965 71.8021 191.579C83.9646 193.161 94.4305 200.84 104.122 203.07C111.422 204.75 118.365 216.406 125.929 208.988C128.503 206.465 130.164 208.892 131.111 204.772C132.751 197.642 136.136 201.242 137.672 194.566C139.142 188.167 120.467 187.222 115.058 186.661C106.783 185.802 97.9878 182.735 89.8533 180.863C78.6495 178.286 65.8622 169.791 62.1874 185.763ZM58.2957 158.734C60.8745 147.521 88.4246 159.808 94.7816 161.27C100.549 162.597 108.49 165.636 114.385 165.78C121.641 165.958 155.207 159.386 153.967 167.677C152.734 175.912 154.513 189.972 142.342 187.08L82.4286 172.847C71.9599 170.36 54.743 179.671 58.2957 158.734ZM54.0764 141.118C60.2404 154.575 93.0989 148.267 108.74 151.865C120.965 154.678 143.906 164.15 155.647 162.205C167.781 160.195 168.71 156.692 171.673 143.813C176.388 123.313 145.711 134.048 135.063 134.49C119.138 135.153 99.3972 128.989 83.2629 125.278C79.9698 124.52 66.6029 120.962 56.6772 123.702C48.4523 125.972 52.183 136.982 54.0764 141.118ZM148.926 192.553C138.902 190.247 140.332 198.79 138.386 207.25C137.92 209.271 138.372 213.555 140.209 213.977C147.161 215.577 147.122 214.493 151.483 208.912C152.49 207.622 153.963 205.397 154.967 204.757C156.954 203.49 160.185 200.386 160.74 197.974C161.15 196.188 162.784 193.804 163.718 192.351C166.045 188.728 162.222 188.422 158.806 188.067C157.912 187.974 150.777 192.754 148.926 192.553ZM159.299 167.359C158.382 170.179 158.882 171.466 159.13 173.396C159.865 179.11 155.829 181.495 162.153 183.964C166.114 185.511 170.77 176.689 174.632 177.571C178.722 178.506 188.444 169.82 182.562 167.524C180.295 166.748 177.969 166.154 175.608 165.747C167.329 163.856 160.464 163.775 159.299 167.359ZM177.449 140.863C178.755 143.808 178.455 145.81 176.839 149.631C175.999 151.614 176.195 153.983 177.796 155.1C179.453 156.255 183.396 157.77 184.166 155.51C185.144 152.739 186.349 150.053 187.77 147.48C189.705 144.08 188.918 146.418 192.526 144.985C195.381 143.851 197.137 142.752 198.8 139.307C200.159 136.491 201.304 136.42 198.809 134.185C197.519 133.03 195.652 132.592 193.92 131.973C192.577 131.494 187.53 133.131 185.54 133.64C181.253 134.735 171.902 128.353 177.449 140.863ZM101.03 33.3907C104.69 33.0479 103.102 45.922 109.778 48.4696C111.007 49.0511 112.014 50.0151 112.649 51.2172C113.284 52.4192 113.512 53.7947 113.299 55.1373C112.758 57.4863 104.286 56.8053 101.914 57.0236C84.5348 58.6236 59.816 111.294 50.4105 75.8156C47.8028 65.9771 43.8283 69.9486 42.1682 62.204C41.1905 57.6458 70.9617 58.3524 76.8199 54.4051C87.1532 47.442 88.9696 34.5228 101.03 33.3907ZM139.864 13.0966L137.324 15.0966C141.646 9.45214 149.881 8.05004 149.426 17.3546C149.173 22.5315 153.751 23.7826 152.814 29.7258C152.471 31.9017 143.713 32.3109 141.648 32.8268C139.474 33.3697 131.016 38.6468 130.838 39.3052C126.516 55.307 108.335 46.5761 110.698 31.5873C112.012 23.2494 118.748 19.7948 125.864 20.0541C127.907 20.1285 132.704 18.6641 134.203 17.9592C135.431 17.3825 139.937 12.6325 139.864 13.0966ZM170.563 4.78763C174.575 2.04233 180.888 -1.07597 185.298 0.363333C188.972 1.56333 182.599 8.22673 181.883 9.86693C181.06 11.7469 175.636 12.8069 174.053 14.2363C171.211 16.8019 170.401 25.6003 166.721 26.6169C159.193 28.6952 150.67 17.4128 152.829 10.5404C153.401 8.71223 152.832 6.78134 154.93 5.22384C157.459 3.34554 167.511 4.25253 170.563 4.78763ZM167.575 86.5476C164.239 101.042 179.893 100.755 175.979 117.768C171.519 137.154 117.193 109.618 99.5967 109.208C87.2581 108.922 63.8637 121.715 54.6608 119.598C47.1465 117.869 42.2017 101.743 53.1947 100.336C60.8763 99.3533 75.4063 90.5769 76.8469 90.9085C95.1696 95.1238 112.943 101.66 132.327 95.1103C144.021 91.1592 153.024 81.8483 167.575 86.5476ZM189.497 79.989C194.598 79.5426 249.095 84.9658 262.144 78.2031C276.958 70.526 282.585 83.7737 292.947 70.8845C300.996 60.8716 304.529 72.3952 302.036 80.4416C299.037 90.1182 306.386 91.6708 306.269 97.8937C306.147 104.206 269.234 98.3181 258.423 100.622C242.417 104.035 232.251 100.741 220.881 110.935C209.133 121.468 181.609 117.682 184.408 100.3C184.605 99.0858 176.872 97.0982 176.017 96.2675C166.16 86.6953 174.171 81.3305 189.497 79.989Z" fill="#1F1A17"/>
</svg>
