<svg width="427" height="215" viewBox="0 0 427 215" fill="none" xmlns="http://www.w3.org/2000/svg">
<path fill-rule="evenodd" clip-rule="evenodd" d="M47.7265 62.1843C48.9407 66.0703 50.9881 69.9766 48.7594 73.2151C46.8956 75.9328 35.2316 85.5515 50.6585 83.1403C65.0421 80.8936 87.0585 84.1043 95.0026 93.9652C98.104 97.8163 109.068 96.2969 112.299 93.4144C118.795 87.6202 119.277 86.9057 113.945 81.3224C109.64 76.8195 116.794 71.1624 114.911 65.1364C113.24 59.7799 81.7859 70.8209 75.0537 68.6739C71.0037 67.3818 70.9378 67.9853 67.6137 66.0703C63.7081 63.8184 64.6126 62.6949 59.3737 60.9026C56.7727 60.0119 47.5095 59.3415 47.7265 62.1843ZM39.4515 62.912C41.8082 69.1212 42.0968 83.642 31.7308 80.292C26.1039 78.4749 24.9842 77.012 18.6903 77.1006C15.4569 77.143 12.3835 76.7647 9.28399 76.8066C4.79869 76.8692 0.461087 69.7782 0.047487 66.4013C-0.469013 62.1471 3.32139 62.1587 6.86529 60.8304C10.994 59.2776 11.0053 61.8393 14.1398 62.8374C19.5265 64.5545 36.8265 57.3209 39.4515 62.912ZM414.871 170.559C424.614 173.979 412.658 177.841 411.336 180.834C410.258 183.275 402.4 186.044 398.823 186.867C397.673 187.132 395.104 188.313 394.625 186.931C393.346 183.231 394.728 182.69 396.947 180.54C399.755 177.818 400.94 174.095 399.785 169.073C399.341 167.143 398.216 164.478 400.302 163.997C407.96 162.236 405.239 167.178 414.871 170.559ZM384.841 184.677C385.423 184.609 390.559 184.184 390.736 184.672C391.565 186.959 391.761 188.74 389.818 189.839C386.213 191.88 381.241 194.516 376.806 195.536C372.973 196.419 373.206 196.818 371.114 194.593C370.103 193.518 370.688 189.082 370.339 187.562C369.839 185.386 367.372 180.125 368.271 178.576C370.757 174.294 380.985 185.127 384.841 184.677ZM390.793 168.438C393.632 170.351 394.532 168.215 395.673 173.173C396.362 176.169 393.387 175.951 390.964 176.509C380.801 178.847 374.091 178.239 371.509 167.016C370.919 164.443 370.784 164.029 373.221 163.469L382.424 161.352C393.704 158.757 384.435 164.154 390.793 168.438ZM403.493 137.581C405.011 144.181 403.104 154.432 399.423 158.342C395.778 162.212 390.153 155.282 388.639 155.416C386.655 155.591 386.23 154.168 384.245 154.625C378.061 156.048 378.862 155.031 377.469 148.974C376.777 145.957 378.186 143.352 379.095 141.391C382.571 133.883 403.459 137.435 403.493 137.581ZM381.103 109.839C380.77 111.259 382.848 117.429 383.268 119.253C383.96 122.253 378.422 132.606 383.218 133.683C385.631 134.225 390.755 132.4 393.718 131.718C403.926 129.37 396.457 122.813 400.268 116.243C401.377 114.332 402.326 110.537 401.795 108.232C400.29 101.682 381.923 106.354 381.103 109.839ZM415.873 95.6334C424.009 95.0263 428.187 105.108 426.105 112.654C423.596 121.753 422.602 122.982 423.334 133.568C423.887 141.559 429.946 155.96 421.245 159.281C395.2 169.224 409.03 150.127 405.639 135.386C401.528 117.508 402.33 106.573 415.873 95.6334ZM388.8 68.441C395.883 66.811 416.045 84.1168 409.705 91.5677C403.217 99.1933 384.999 101.386 378.315 94.2832C375.484 91.2726 383.138 82.8876 384.596 81.3402C389.903 75.7078 379.151 72.728 388.8 68.441ZM364.449 185.763C366.712 195.604 359.564 190.965 354.834 191.579C342.671 193.161 332.206 200.84 322.514 203.07C315.214 204.75 308.271 216.406 300.707 208.988C298.133 206.465 296.472 208.892 295.525 204.772C293.885 197.642 290.5 201.242 288.964 194.566C287.494 188.167 306.169 187.222 311.578 186.661C319.853 185.802 328.648 182.735 336.783 180.863C347.987 178.286 360.774 169.791 364.449 185.763ZM368.34 158.734C365.761 147.52 338.211 159.808 331.854 161.27C326.087 162.597 318.146 165.636 312.25 165.78C304.995 165.958 271.429 159.386 272.668 167.677C273.902 175.912 272.123 189.972 284.294 187.081L344.207 172.848C354.676 170.36 371.893 179.671 368.34 158.734ZM372.559 141.118C366.395 154.575 333.537 148.266 317.896 151.865C305.671 154.677 282.73 164.15 270.989 162.205C258.855 160.195 257.925 156.692 254.963 143.813C250.248 123.313 280.925 134.047 291.573 134.49C307.497 135.153 327.238 128.989 343.373 125.277C346.666 124.52 360.033 120.962 369.959 123.702C378.184 125.972 374.453 136.982 372.559 141.118ZM277.709 192.553C287.734 190.247 286.304 198.79 288.249 207.25C288.716 209.271 288.264 213.555 286.427 213.977C279.474 215.577 279.514 214.493 275.152 208.912C274.146 207.621 272.673 205.396 271.669 204.757C269.682 203.49 266.451 200.386 265.896 197.974C265.486 196.188 263.851 193.804 262.918 192.351C260.591 188.728 264.414 188.422 267.829 188.067C268.723 187.974 275.858 192.753 277.709 192.553ZM267.337 167.359C268.254 170.179 267.753 171.466 267.505 173.396C266.771 179.109 270.806 181.495 264.482 183.963C260.521 185.511 255.865 176.688 252.003 177.571C247.913 178.505 238.192 169.82 244.073 167.524C246.341 166.748 248.666 166.154 251.028 165.747C259.307 163.855 266.171 163.775 267.337 167.359ZM249.187 140.863C247.881 143.808 248.181 145.809 249.797 149.631C250.637 151.613 250.442 153.983 248.84 155.099C247.183 156.254 243.24 157.77 242.47 155.51C241.492 152.738 240.287 150.052 238.866 147.48C236.931 144.08 237.718 146.418 234.11 144.985C231.255 143.851 229.499 142.751 227.836 139.306C226.477 136.49 225.332 136.42 227.827 134.184C229.118 133.03 230.984 132.591 232.716 131.973C234.059 131.494 239.106 133.131 241.096 133.64C245.383 134.734 254.734 128.352 249.187 140.863ZM325.606 33.391C321.946 33.0482 323.534 45.9223 316.858 48.4699C315.629 49.0514 314.622 50.0154 313.987 51.2175C313.352 52.4195 313.124 53.795 313.336 55.1376C313.878 57.4866 322.35 56.8057 324.722 57.0239C342.101 58.6239 366.82 111.294 376.225 75.8159C378.833 65.9775 382.807 69.949 384.467 62.2043C385.445 57.6461 355.674 58.3527 349.816 54.4054C339.482 47.4423 337.666 34.523 325.606 33.391ZM286.773 13.0966L289.312 15.0966C284.99 9.45214 276.755 8.05004 277.21 17.3546C277.463 22.5315 272.885 23.7826 273.822 29.7258C274.165 31.9017 282.923 32.311 284.988 32.8268C287.162 33.3697 295.62 38.6468 295.798 39.3052C300.12 55.307 318.3 46.5761 315.938 31.5873C314.624 23.2494 307.888 19.7948 300.771 20.0541C298.729 20.1285 293.931 18.6641 292.433 17.9592C291.204 17.3825 286.699 12.6325 286.773 13.0966ZM256.073 4.78763C252.062 2.04233 245.748 -1.07597 241.339 0.363333C237.665 1.56333 244.037 8.22673 244.754 9.86693C245.576 11.7469 251 12.8069 252.583 14.2363C255.426 16.8019 256.235 25.6003 259.915 26.6169C267.443 28.6952 275.966 17.4128 273.808 10.5404C273.235 8.71234 273.805 6.78134 271.707 5.22384C269.177 3.34554 259.126 4.25243 256.073 4.78763ZM259.061 86.5476C262.397 101.042 246.743 100.755 250.657 117.768C255.117 137.154 309.444 109.618 327.039 109.208C339.378 108.922 362.773 121.715 371.975 119.598C379.49 117.87 384.435 101.743 373.441 100.336C365.76 99.3534 351.23 90.5769 349.789 90.9085C331.467 95.1239 313.694 101.66 294.309 95.1104C282.615 91.1592 273.613 81.8483 259.061 86.5476ZM237.139 79.989C232.038 79.5426 177.541 84.9659 164.492 78.2031C149.678 70.526 144.052 83.7737 133.689 70.8845C125.64 60.8717 122.107 72.3952 124.6 80.4416C127.599 90.1182 120.25 91.6708 120.367 97.8937C120.489 104.206 157.402 98.3181 168.213 100.622C184.219 104.035 194.385 100.741 205.755 110.935C217.504 121.468 245.027 117.682 242.228 100.3C242.031 99.0858 249.764 97.0982 250.619 96.2675C260.476 86.6953 252.466 81.3305 237.139 79.989Z" fill="#1F1A17"/>
</svg>
